name GIL11_slow2.mot
datacolumns 153
datarows 4
range 0.26666653 0.29166654
endheader

                time	           pelvis_tx	           pelvis_ty	           pelvis_tz	         pelvis_tilt	         pelvis_list	     pelvis_rotation	       hip_flexion_r	     hip_adduction_r	      hip_rotation_r	        knee_angle_r	       ankle_angle_r	    subtalar_angle_r	         mtp_angle_r	       hip_flexion_l	     hip_adduction_l	      hip_rotation_l	        knee_angle_l	       ankle_angle_l	    subtalar_angle_l	         mtp_angle_l	    lumbar_extension	      lumbar_bending	     lumbar_rotation	     ground_force_vx	     ground_force_vy	     ground_force_vz	     ground_force_px	     ground_force_py	     ground_force_pz	     ground_force_vx	     ground_force_vy	     ground_force_vz	     ground_force_px	     ground_force_py	     ground_force_pz	     ground_torque_x	     ground_torque_y	     ground_torque_z	     ground_torque_x	     ground_torque_y	     ground_torque_z	    ground_marker_px	    ground_marker_py	    ground_marker_pz	    ground_marker_px	    ground_marker_py	    ground_marker_pz	    ground_marker_px	    ground_marker_py	    ground_marker_pz	    ground_marker_px	    ground_marker_py	    ground_marker_pz	    ground_marker_px	    ground_marker_py	    ground_marker_pz	    ground_marker_px	    ground_marker_py	    ground_marker_pz	    ground_marker_px	    ground_marker_py	    ground_marker_pz	    ground_marker_px	    ground_marker_py	    ground_marker_pz	    ground_marker_px	    ground_marker_py	    ground_marker_pz	    ground_marker_px	    ground_marker_py	    ground_marker_pz	    ground_marker_px	    ground_marker_py	    ground_marker_pz	    ground_marker_px	    ground_marker_py	    ground_marker_pz	    ground_marker_px	    ground_marker_py	    ground_marker_pz	    ground_marker_px	    ground_marker_py	    ground_marker_pz	    ground_marker_px	    ground_marker_py	    ground_marker_pz	    ground_marker_px	    ground_marker_py	    ground_marker_pz	    ground_marker_px	    ground_marker_py	    ground_marker_pz	    ground_marker_px	    ground_marker_py	    ground_marker_pz	    ground_marker_px	    ground_marker_py	    ground_marker_pz	    ground_marker_px	    ground_marker_py	    ground_marker_pz	    ground_marker_px	    ground_marker_py	    ground_marker_pz	    ground_marker_px	    ground_marker_py	    ground_marker_pz	    ground_marker_px	    ground_marker_py	    ground_marker_pz	    ground_marker_px	    ground_marker_py	    ground_marker_pz	    ground_marker_px	    ground_marker_py	    ground_marker_pz	    ground_marker_px	    ground_marker_py	    ground_marker_pz	    ground_marker_px	    ground_marker_py	    ground_marker_pz	    ground_marker_px	    ground_marker_py	    ground_marker_pz	    ground_marker_px	    ground_marker_py	    ground_marker_pz	    ground_marker_px	    ground_marker_py	    ground_marker_pz	    ground_marker_px	    ground_marker_py	    ground_marker_pz	    ground_marker_px	    ground_marker_py	    ground_marker_pz	    ground_marker_px	    ground_marker_py	    ground_marker_pz	    ground_marker_px	    ground_marker_py	    ground_marker_pz	    ground_marker_px	    ground_marker_py	    ground_marker_pz	    ground_marker_px	    ground_marker_py	    ground_marker_pz	    ground_marker_px	    ground_marker_py	    ground_marker_pz	
          0.26666653	          1.48447871	          0.87542069	         -0.27426374	         -6.35634422	          2.87673545	          3.58337808	          0.31769180	        -10.09089947	          1.68161595	        -41.49095535	        -25.96651268	          0.00000000	          0.00000000	         18.84302902	          6.26948977	          7.28326607	        -11.92536545	         -1.77735269	          0.00000000	          0.00000000	          0.54056996	         -6.83393669	          0.08069037	          0.00000000	          0.00000000	          0.00000000	          1.88544360	          0.00000000	         -0.21757190	        -44.91979481	        579.50659212	         29.27472008	          1.50069739	          0.00000000	         -0.32695505	          0.00000000	          0.00000000	          0.00000000	          0.00000000	          0.44039587	          0.00000000	          1.40975308	          0.82512504	         -0.27505219	          1.39742911	          0.79942417	         -0.19931835	          1.38581300	          0.80966192	         -0.35065591	          1.36151767	          0.42849058	         -0.15683542	          1.47094989	          0.43161616	         -0.33739111	          1.08550441	          0.17335938	         -0.14341341	          1.47408736	          0.06888387	         -0.31274199	          1.48447871	          0.87542069	         -0.27426374	          1.48960960	          0.86749995	         -0.15681623	          1.47934794	          0.88334137	         -0.39171126	          1.29320133	          0.94004762	         -0.23077452	          1.28681433	          0.93810898	         -0.28490114	          1.36676085	          0.43456185	         -0.09939284	          1.47698927	          0.43095237	         -0.39507198	          1.37387478	          0.42089570	         -0.22052597	          1.48415470	          0.44344354	         -0.27781931	          1.07384217	          0.18783939	         -0.10799702	          1.45950460	          0.06623306	         -0.34989461	          1.10096312	          0.16841111	         -0.17446037	          1.48419821	          0.07872978	         -0.28821024	          1.35158730	          1.37333989	         -0.26589704	          1.48259497	          1.31489503	         -0.22437513	          1.47665489	          1.30943024	         -0.33048066	          1.47602010	          1.30875957	         -0.27617252	          1.51778698	          1.24039817	         -0.27916771	          1.54296100	          0.54464978	         -0.19074285	          1.48694122	          0.55954695	         -0.48910964	          1.48314595	          0.60703206	         -0.13896386	          1.41908300	          0.60152441	         -0.43093631	          1.46319687	          0.52190214	         -0.13177012	          1.44400430	          0.51860827	         -0.41565084	          1.12470102	          0.25784904	         -0.04131042	          1.56561399	          0.19600224	         -0.31716424	          1.13419819	          0.25720856	         -0.08415858	          1.52414513	          0.19250973	         -0.32525206	          1.09305525	          0.07063848	         -0.12883160	          1.57789123	          0.04215735	         -0.34818044	
          0.27499989	          1.49027634	          0.87583226	         -0.27565473	         -6.42313194	          2.67799115	          3.68842936	          1.32528687	        -10.01398945	          1.58445334	        -42.93764877	        -26.55105400	          0.00000000	          0.00000000	         18.55794716	          6.18189096	          7.23845148	        -12.11859608	         -1.29474509	          0.00000000	          0.00000000	          0.67798281	         -6.72090435	          0.14625947	          0.00000000	          0.00000000	          0.00000000	          1.88753369	          0.00000000	         -0.21757947	        -43.93753400	        579.60886799	         29.79890673	          1.50266943	          0.00000000	         -0.32768890	          0.00000000	          0.00000000	          0.00000000	          0.00000000	          0.49661279	          0.00000000	          1.41465425	          0.82493168	         -0.27704066	          1.40335774	          0.80013347	         -0.20025714	          1.39132380	          0.80997318	         -0.35158846	          1.37356853	          0.42836449	         -0.15746762	          1.47417772	          0.43156785	         -0.33807486	          1.09610546	          0.17624298	         -0.14514636	          1.47396779	          0.06890384	         -0.31278020	          1.49027634	          0.87583226	         -0.27565473	          1.49573708	          0.86821675	         -0.15807986	          1.48481548	          0.88344777	         -0.39322963	          1.29921401	          0.94069064	         -0.23172310	          1.29250669	          0.93883252	         -0.28585789	          1.37870228	          0.43456414	         -0.10002889	          1.47996736	          0.43077478	         -0.39577973	          1.38713574	          0.41844797	         -0.21948941	          1.48558688	          0.44250894	         -0.27863979	          1.08468175	          0.19055286	         -0.10958336	          1.45952344	          0.06631684	         -0.34999132	          1.11151934	          0.17196897	         -0.17647044	          1.48461282	          0.07853060	         -0.28845552	          1.35736990	          1.37398076	         -0.26771194	          1.48904490	          1.31551540	         -0.22566110	          1.48270357	          1.30996668	         -0.33211023	          1.48227942	          1.30936778	         -0.27773637	          1.52408493	          1.24100482	         -0.28072292	          1.55332160	          0.54695135	         -0.19141176	          1.49027824	          0.55926323	         -0.49006569	          1.49202144	          0.60835445	         -0.14027488	          1.42323136	          0.60135049	         -0.43166882	          1.47400868	          0.52237034	         -0.13199548	          1.44666374	          0.51869285	         -0.41652632	          1.13595498	          0.25925139	         -0.04245997	          1.56672299	          0.19530788	         -0.31703022	          1.14508963	          0.25907850	         -0.08489086	          1.52523506	          0.19154496	         -0.32467806	          1.10148478	          0.07307912	         -0.12980047	          1.57795298	          0.04203399	         -0.34821737	
          0.28333321	          1.49595857	          0.87619919	         -0.27701858	         -6.49622536	          2.48866367	          3.79619527	          2.36396980	         -9.94871521	          1.49697769	        -44.35929108	        -26.77993202	          0.00000000	          0.00000000	         18.29470825	          6.11048508	          7.18805838	        -12.33396626	         -0.78070503	          0.00000000	          0.00000000	          0.80293959	         -6.35611105	         -0.15586376	          0.00000000	          0.00000000	          0.00000000	          1.88980249	          0.00000000	         -0.21753737	        -42.54202295	        580.33439217	         30.39883269	          1.50477856	          0.00000000	         -0.32844214	          0.00000000	          0.00000000	          0.00000000	          0.00000000	          0.56225793	          0.00000000	          1.41904318	          0.82423198	         -0.27849627	          1.40916419	          0.80079591	         -0.20118344	          1.39671361	          0.81026596	         -0.35250467	          1.38567853	          0.42825833	         -0.15811054	          1.47739077	          0.43151051	         -0.33868802	          1.10705173	          0.17893086	         -0.14708009	          1.47380078	          0.06891815	         -0.31277430	          1.49595857	          0.87619919	         -0.27701858	          1.50174880	          0.86886835	         -0.15932524	          1.49016845	          0.88353002	         -0.39471191	          1.30513477	          0.94130510	         -0.23260991	          1.29813111	          0.93951637	         -0.28674835	          1.39071059	          0.43458167	         -0.10067629	          1.48293066	          0.43058470	         -0.39641541	          1.40107167	          0.41592321	         -0.21837842	          1.48789620	          0.44336796	         -0.27818865	          1.09584999	          0.19302918	         -0.11136235	          1.45955944	          0.06639384	         -0.35006791	          1.12245083	          0.17480427	         -0.17853625	          1.48484564	          0.07837255	         -0.28861666	          1.36359715	          1.37439382	         -0.26921239	          1.49491465	          1.31583667	         -0.22682129	          1.48892057	          1.31065691	         -0.33313850	          1.48850489	          1.30996478	         -0.27925861	          1.53010571	          1.24150169	         -0.28193662	          1.56358540	          0.54934895	         -0.19211468	          1.49356151	          0.55898678	         -0.49097100	          1.50087976	          0.60968292	         -0.14158107	          1.42731464	          0.60135692	         -0.43310893	          1.48522317	          0.52302629	         -0.13226810	          1.45000601	          0.51817745	         -0.41692531	          1.14744675	          0.26038316	         -0.04378705	          1.56770718	          0.19463812	         -0.31668887	          1.15629148	          0.26029897	         -0.08595391	          1.52639258	          0.19045147	         -0.32432348	          1.11088347	          0.07540744	         -0.13069588	          1.57800341	          0.04194968	         -0.34824318	
          0.29166654	          1.50154305	          0.87652564	         -0.27836651	         -6.57006645	          2.31669497	          3.90906286	          3.42487907	         -9.90657711	          1.42236006	        -45.75262070	        -26.60117149	          0.00000000	          0.00000000	         18.03726768	          6.06459284	          7.13341522	        -12.54524231	         -0.25444451	          0.00000000	          0.00000000	          0.84924483	         -6.01118612	         -0.37990570	          0.00000000	          0.00000000	          0.00000000	          1.89218286	          0.00000000	         -0.21747607	        -40.82786899	        581.63337475	         30.96391448	          1.50674878	          0.00000000	         -0.32911194	          0.00000000	          0.00000000	          0.00000000	          0.00000000	          0.61744995	          0.00000000	          1.42440748	          0.82448721	         -0.27960479	          1.41487217	          0.80139577	         -0.20211968	          1.40200627	          0.81054509	         -0.35342583	          1.39785767	          0.42819983	         -0.15876833	          1.48054409	          0.43144971	         -0.33924174	          1.11830771	          0.18140826	         -0.14918503	          1.47364426	          0.06891990	         -0.31273115	          1.50154305	          0.87652564	         -0.27836651	          1.50766134	          0.86944312	         -0.16057722	          1.49542463	          0.88360816	         -0.39615580	          1.31094968	          0.94188911	         -0.23344743	          1.30367577	          0.94014364	         -0.28757605	          1.40279913	          0.43464556	         -0.10133981	          1.48583627	          0.43038541	         -0.39699000	          1.41303587	          0.41569453	         -0.21816328	          1.49074817	          0.44459093	         -0.27788949	          1.10731554	          0.19525290	         -0.11330333	          1.45962143	          0.06645330	         -0.35011131	          1.13352048	          0.17703496	         -0.18072879	          1.48475862	          0.07836494	         -0.28861842	          1.37022448	          1.37478936	         -0.27021918	          1.50094628	          1.31622410	         -0.22830272	          1.49514079	          1.31142879	         -0.33437166	          1.49467432	          1.31052208	         -0.28070307	          1.53620183	          1.24207079	         -0.28347999	          1.57374239	          0.55182284	         -0.19286804	          1.49677026	          0.55871880	         -0.49182680	          1.51026630	          0.61098999	         -0.14240177	          1.43086064	          0.60184294	         -0.43436033	          1.49591362	          0.52449769	         -0.13273036	          1.45331895	          0.51788259	         -0.41723153	          1.15917373	          0.26123932	         -0.04528429	          1.56858337	          0.19397645	         -0.31627214	          1.16798675	          0.26127043	         -0.08761133	          1.52657545	          0.18943533	         -0.32417014	          1.12133300	          0.07759446	         -0.13150899	          1.57804203	          0.04190186	         -0.34826440	
